<?xml version="1.0" encoding="UTF-8"?>
<svg id="Capa_1" data-name="Capa 1" xmlns="http://www.w3.org/2000/svg" viewBox="0 0 32 32">
  <defs>
    <style>
      .cls-1 {
        fill: #f2efc0;
      }

      .cls-2 {
        fill: #667256;
      }
    </style>
  </defs>
  <circle class="cls-2" cx="16" cy="16" r="16"/>
  <path class="cls-1" d="M14.53,17.52c.81-1.54,1.41-3.12,2.39-5.25-.1.1-.31.32-.64.65-.33.34-.6.6-.81.79-.21.19-.49.41-.84.65-.34.25-.71.43-1.08.55-.38.12-.78.19-1.21.21-1.13-.11-1.9-.6-2.29-1.45-.39-.85-.39-1.78.01-2.77.4-.99,1.07-1.74,2.01-2.23,1.03-.56,2.24-.92,3.62-1.1,1.38-.17,2.76-.07,4.14.3,1.38.37,2.43,1.03,3.15,1.98.56.74.95,1.62,1.17,2.65.22,1.03.26,2.04.12,3.04-.14,1-.2,2.05-.56,2.94-.36.9-1.71,5.21-5.97,5.26-.8,0-2.82-.64-3.18-1.28-.18.39-.9,1.56-3.75,1.53-1.7-.02-3.18-1.16-3.77-2.01-.59-.85-.87-1.78-.85-2.78.02-1,.32-1.86.87-2.56.53-.64,1.19-.99,2-.96,1.3.05,2.09.83,2.06,1.51-.08,1.63.54,2.31,1.4,2.28.51-.02,1.04-.1,2-1.95ZM16.77,18.48c.67.34,1.9.8,2.92.06,1.52-1.1,2.25-2.93,2.47-4.91.23-2.1-.96-3.75-1.87-4.4-.57-.41-1.5-.64-2.36-.59-.89.07-1.93.42-2.52.9-.59.48-1.31,1.25-1.49,2.29-.05.29.07.51.27.63s.44.13.71.01c.26-.1,1.58-1.17,2.34-1.85.76-.68,1.38-1.1,1.87-1.27.1-.03.19-.06.27-.07.25-.02.42.06.52.22.1.16.02.38-.22.64-.67.59-1.89,4.41-2.91,8.33Z"/>
</svg>