<svg width="36" height="36" viewBox="0 0 36 36" fill="none" xmlns="http://www.w3.org/2000/svg">
<path d="M31.7112 29.768C35.0866 34.0495 35.5109 34.5709 34.9768 35.1098C34.4513 35.6485 33.3654 35.8819 31.7327 35.81C26.5972 35.6363 26.6193 34.2588 24.9162 31.7378C22.6003 28.4383 21.0456 26.1866 20.2444 24.9829C19.1367 23.4318 18.2955 22.5989 17.7219 22.4731C17.2667 22.3777 16.8464 22.9411 16.47 24.1684C16.3036 24.5996 16.0364 25.4079 15.6643 26.5874C15.2921 27.7731 15.0122 28.7137 14.8108 29.4204C14.2153 31.5344 12.0521 35.6665 9.05296 35.6665C7.26684 34.912 5.89657 34.0736 4.94652 33.1694C3.99647 32.2592 3.89964 31.5638 4.66136 31.0727C5.79532 30.384 7.20132 28.3545 8.87816 24.977C9.74115 22.8086 10.6367 20.3327 11.5686 17.5464C8.66237 13.1421 6.50637 8.90038 4.28929 6.23288C0.91362 1.95101 0.489513 1.43005 1.02367 0.891079C1.54907 0.352109 2.63471 0.118044 4.26781 0.189907C9.40317 0.363595 9.38129 1.74119 11.0842 4.26217C13.4001 7.56153 14.9548 9.81324 15.7561 11.0171C16.8638 12.5681 17.705 13.4011 18.2786 13.5268C18.7338 13.6223 19.1541 13.0589 19.5305 11.8315C19.6969 11.4002 19.9641 10.5919 20.3362 9.41256C20.7083 8.22683 20.9883 7.28621 21.1897 6.57956C21.7853 4.46547 23.9485 0.333462 26.9475 0.333463C28.7338 1.08802 30.1039 1.92724 31.0539 2.83151C32.0038 3.74162 32.1006 4.43618 31.3391 4.92721C30.2051 5.6159 28.7992 7.64631 27.1223 11.0239C26.2595 13.1918 25.3645 15.6669 24.4328 18.4526C27.3392 22.8571 29.494 27.1005 31.7112 29.768Z" fill="#F2EFC0"/>
</svg>
