<svg width="41" height="81" viewBox="0 0 41 81" fill="none" xmlns="http://www.w3.org/2000/svg">
<path d="M11.6751 53.1692C12.9637 52.6432 14.6782 51.9114 16.8405 50.9395C18.9918 49.9676 20.466 49.2701 21.2523 48.8355C23.491 47.8522 24.5175 46.7545 24.3427 45.5653C24.1134 44.0674 22.5955 41.872 19.7671 38.979C17.5721 36.8865 13.4661 32.8273 7.44896 26.7785C2.85149 22.3305 0.339813 22.3876 0.0231223 8.975C-0.107922 4.70994 0.317972 1.87419 1.3008 0.50206C2.28363 -0.892944 3.2337 0.216202 11.0418 9.03217C16.2289 15.2068 24.6813 21.1984 33.2756 29.5799C36.4316 32.4271 39.6421 39.1963 40.7779 47.269C41.9136 55.3417 38.4628 59.7555 35.6781 60.5216C29.6282 63.3573 24.3318 66.0673 19.778 68.6629C13.619 73.0423 9.91696 76.7128 8.66112 79.6743C7.76565 81.6639 6.49889 81.4123 4.839 78.9311C3.19003 76.4498 1.66118 72.8708 0.285213 68.2055C0.285213 60.3729 7.82025 54.7243 11.6751 53.1692Z" fill="#F2EFC0"/>
</svg>
