<svg width="42" height="24" viewBox="0 0 42 24" fill="none" xmlns="http://www.w3.org/2000/svg">
<path d="M14.4305 7.05017C14.7032 7.77294 15.0826 8.73459 15.5866 9.94738C16.0906 11.154 16.4522 11.9809 16.6775 12.4219C17.1874 13.6776 17.7566 14.2534 18.3732 14.1554C19.1498 14.0267 20.2882 13.1753 21.7882 11.5889C22.8732 10.3578 24.9779 8.0547 28.1143 4.67973C30.4206 2.10104 30.391 0.692249 37.3455 0.514619C39.557 0.441117 41.0273 0.679998 41.7388 1.23126C42.4621 1.78253 41.887 2.31542 37.3158 6.69491C34.1143 9.60437 31.0076 14.3452 26.6617 19.1658C25.1854 20.9359 21.6755 22.7367 17.4898 23.3737C13.304 24.0108 11.0155 22.0752 10.6182 20.5133C9.14786 17.1199 7.74273 14.1492 6.39688 11.595C4.12612 8.14045 2.22296 6.06402 0.687389 5.35963C-0.344231 4.85736 -0.213797 4.14684 1.07276 3.21582C2.35933 2.29092 4.21506 1.43339 6.63403 0.661623C10.6953 0.661623 13.6242 4.88799 14.4305 7.05017Z" fill="#FCB6BC"/>
</svg>
