<svg width="42" height="24" viewBox="0 0 42 24" fill="none" xmlns="http://www.w3.org/2000/svg">
<path d="M27.5686 16.9498C27.2959 16.2271 26.9164 15.2654 26.4125 14.0526C25.9085 12.846 25.5469 12.0191 25.3216 11.5781C24.8117 10.3224 24.2425 9.74663 23.6259 9.84463C22.8492 9.97326 21.7109 10.8247 20.2109 12.4111C19.1259 13.6422 17.0212 15.9453 13.8848 19.3203C11.5785 21.899 11.6081 23.3078 4.65359 23.4854C2.44212 23.5589 0.971767 23.32 0.260307 22.7687C-0.463013 22.2175 0.112087 21.6846 4.68323 17.3051C7.88481 14.3956 10.9915 9.65476 15.3374 4.83425C16.8137 3.06408 20.3235 1.26328 24.5093 0.62626C28.6951 -0.0107582 30.9836 1.9248 31.3809 3.48671C32.8512 6.88006 34.2564 9.85076 35.6022 12.405C37.873 15.8595 39.7761 17.936 41.3117 18.6404C42.3433 19.1426 42.2129 19.8532 40.9263 20.7842C39.6398 21.7091 37.784 22.5666 35.3651 23.3384C31.3038 23.3384 28.3749 19.112 27.5686 16.9498Z" fill="#FCB6BC"/>
</svg>
