<svg width="41" height="81" viewBox="0 0 41 81" fill="none" xmlns="http://www.w3.org/2000/svg">
<path d="M29.3249 53.1692C28.0363 52.6432 26.3218 51.9114 24.1595 50.9395C22.0082 49.9676 20.534 49.2701 19.7477 48.8355C17.509 47.8522 16.4825 46.7545 16.6573 45.5653C16.8866 44.0674 18.4045 41.872 21.2329 38.979C23.4279 36.8865 27.5339 32.8273 33.551 26.7785C38.1485 22.3305 40.6602 22.3876 40.9769 8.975C41.1079 4.70994 40.682 1.87419 39.6992 0.50206C38.7164 -0.892944 37.7663 0.216202 29.9582 9.03217C24.7711 15.2068 16.3187 21.1984 7.72441 29.5799C4.56843 32.4271 1.35785 39.1963 0.222135 47.269C-0.913585 55.3417 2.53725 59.7555 5.32194 60.5216C11.3718 63.3573 16.6682 66.0673 21.222 68.6629C27.381 73.0423 31.083 76.7128 32.3389 79.6743C33.2343 81.6639 34.5011 81.4123 36.161 78.9311C37.81 76.4498 39.3388 72.8708 40.7148 68.2055C40.7148 60.3729 33.1797 54.7243 29.3249 53.1692Z" fill="#F2EFC0"/>
</svg>
