<svg width="81" height="41" viewBox="0 0 81 41" fill="none" xmlns="http://www.w3.org/2000/svg">
<path d="M27.8308 11.6751C28.3568 12.9637 29.0886 14.6782 30.0605 16.8405C31.0324 18.9918 31.7299 20.466 32.1645 21.2523C33.1478 23.491 34.2455 24.5175 35.4347 24.3427C36.9326 24.1134 39.128 22.5955 42.021 19.7671C44.1135 17.5721 48.1727 13.4661 54.2215 7.44896C58.6695 2.8515 58.6124 0.339816 72.025 0.0231254C76.2901 -0.107919 79.1258 0.317975 80.4979 1.30081C81.8929 2.28364 80.7838 3.23371 71.9678 11.0418C65.7932 16.2289 59.8016 24.6813 51.4201 33.2756C48.5729 36.4316 41.8037 39.6422 33.731 40.7779C25.6582 41.9136 21.2445 38.4628 20.4784 35.6781C17.6427 29.6282 14.9327 24.3318 12.3371 19.778C7.9577 13.619 4.28723 9.91696 1.32571 8.66112C-0.663889 7.76565 -0.412331 6.49889 2.06895 4.839C4.55023 3.19003 8.12921 1.66118 12.7945 0.285214C20.6271 0.285214 26.2757 7.82025 27.8308 11.6751Z" fill="#F2EFC0"/>
</svg>
