<svg width="240" height="258" viewBox="0 0 240 258" fill="none" xmlns="http://www.w3.org/2000/svg">
<path d="M54.3401 91.0803C40.5501 86.1503 31.3601 71.6803 30.7201 57.0203C30.0801 42.3603 37.1201 28.0103 47.6901 17.8703C59.0701 6.94034 74.5801 0.450336 90.3301 0.0203356C100.98 -0.269664 112.34 2.51034 119.53 10.4003C126.15 17.6603 128.19 28.0603 128.1 37.8903C128.01 47.7203 126.07 57.4603 125.92 67.3003C127.96 42.9903 145.87 20.7803 169.17 13.6903C181.57 9.91034 195.66 10.3703 206.75 17.0903C226.09 28.8203 230.72 55.9903 224.35 77.7303C220.44 91.0703 211.37 104.71 197.64 106.7C209.33 105.58 219.37 114.95 225.97 124.68C235.1 138.14 241.19 154.49 238.91 170.6C236.63 186.71 224.36 201.97 208.26 204.11C188.59 206.72 171.88 190.69 158.52 175.98C163.44 186.11 168.41 196.36 170.68 207.4C172.95 218.43 172.26 230.5 166.41 240.12C157.1 255.44 135.82 260.89 119.05 254.63C102.28 248.37 90.3101 232.41 85.6701 215.09C81.0301 197.77 82.9201 179.26 87.5501 161.93C79.9801 171.33 71.0701 179.96 60.1801 185.14C49.2901 190.32 36.1801 191.7 25.1801 186.75C8.84013 179.37 0.940128 160 0.630128 142.04C0.380128 127.25 4.53013 111.93 14.4901 101.01C24.4501 90.1003 40.8001 84.5403 54.7601 89.2903C54.9801 89.9603 54.5901 90.7603 54.3401 91.0703V91.0803Z" fill="#667256"/>
<path d="M125.84 94.5803C113.9 92.4303 101.4 100.35 96.7501 111.59C92.1001 122.82 94.6901 136.31 101.87 146.11C108.59 155.28 119.14 161.54 130.39 163.02C135.01 163.63 139.76 163.46 144.27 162.26C154.77 159.47 163.49 150.78 166.34 140.28C169.19 129.78 166.06 117.86 158.41 110.12C155.1 106.77 151.07 104.21 146.97 101.88C140.73 98.3403 134.08 95.2003 126.97 94.1403C126.97 94.0803 126.97 94.0203 125.84 94.5703V94.5803Z" fill="#DD9B26"/>
</svg>
