<svg width="114" height="91" viewBox="0 0 114 91" fill="none" xmlns="http://www.w3.org/2000/svg">
<g clip-path="url(#clip0_63_285)">
<path d="M82.6545 26.6104C87.9222 24.4801 93.7584 23.7608 99.3823 24.5554C102.924 25.0555 106.479 26.1926 109.212 28.5079C111.952 30.8232 113.74 34.4605 113.185 38.0088C112.473 42.5778 108.274 45.7836 104.027 47.592C97.1355 50.5307 89.3744 51.0855 81.9764 49.921C90.491 52.6679 96.5601 60.4769 99.8412 68.8271C101.403 72.7864 102.465 77.1156 101.643 81.2941C100.821 85.4726 97.7246 89.4114 93.5461 90.1375C90.4841 90.6649 87.4016 89.4593 84.6205 88.0825C73.3728 82.5066 63.8033 73.5878 57.4259 62.7511C55.8573 66.1487 52.0692 67.8544 48.5141 68.9846C39.8282 71.7383 30.5944 72.7247 21.525 71.8822C17.9972 71.5534 14.3804 70.9026 11.4212 68.9572C8.462 67.0118 6.29055 63.4841 6.8591 59.9768C7.33176 57.0793 9.49636 54.7708 11.7158 52.8597C16.9697 48.3387 23.1484 44.9068 29.7587 42.8518C24.3335 42.2901 18.8398 41.6873 13.7434 39.7419C8.64695 37.7965 3.90674 34.3235 1.57774 29.371C-0.751268 24.4184 -0.13476 17.904 3.89305 14.2187C6.85911 11.5061 11.0787 10.6773 15.086 10.4375C27.9229 9.65662 40.9996 13.8899 50.9595 22.062C49.5279 16.6436 54.0557 11.5541 58.5151 8.18387C63.2621 4.58076 68.6394 1.4503 74.551 1.00505C80.4625 0.559797 86.9495 3.4642 89.121 9.00587C91.4363 14.9174 88.2305 21.7058 82.6545 26.6173L82.6545 26.6104Z" fill="#667256"/>
<path d="M72.6742 35.2413C68.7765 30.2887 61.5909 28.6653 55.5628 30.4531C52.0214 31.5012 48.569 33.9124 47.6511 37.5018C46.8839 40.5021 48.1032 43.7764 50.2609 45.989C52.4187 48.2015 55.3916 49.4551 58.4056 50.1058C63.1527 51.1333 68.845 50.4072 71.633 46.4205C73.003 44.4614 73.4619 42.0228 73.8524 39.6596C74.0716 38.3238 74.2771 36.9401 73.9414 35.6318C73.6058 34.3234 72.5851 33.0904 72.6673 35.2413L72.6742 35.2413Z" fill="#FCB6BC"/>
</g>
<defs>
<clipPath id="clip0_63_285">
<rect width="89.2968" height="113.053" fill="white" transform="translate(113.288 0.956909) rotate(90)"/>
</clipPath>
</defs>
</svg>
