<svg width="134" height="225" viewBox="0 0 134 225" fill="none" xmlns="http://www.w3.org/2000/svg">
<path d="M68.7735 35.0547C59.6326 19.4335 43.1188 8.32026 25.1858 5.75289C18.3783 4.77656 10.4642 5.40334 6.13429 10.7309C0.914362 17.1554 3.62055 26.8342 7.89031 33.9457C18.5346 51.6883 36.5638 63.4886 53.9797 74.6741C29.5398 85.8114 10.2116 107.628 2.12914 133.217C-0.023782 140.04 -1.01004 148.537 4.22192 153.431C10.1274 158.951 19.7494 156.143 26.8456 152.25C36.0587 147.199 44.5381 140.811 51.935 133.362C41.5312 151.334 30.8508 170.209 29.8525 190.953C29.4556 199.258 30.8147 208.021 35.8542 214.638C45.4041 227.186 65.6824 227.354 78.4195 218.049C91.1566 208.744 97.3027 192.725 99.3233 177.092C101.344 161.47 99.9247 145.608 100.875 129.879C103.148 137.255 106.973 144.15 112.012 149.996C114.105 152.418 116.799 154.829 119.999 154.721C123.342 154.612 125.916 151.792 127.672 148.947C134.889 137.279 134.756 122.176 130.102 109.279C125.447 96.3822 116.751 85.3534 107.466 75.2647C123.487 61.8975 130.968 39.1287 126 18.879C124.882 14.3228 123.114 9.77872 119.878 6.36761C111.772 -2.19029 96.9298 -0.551029 87.6326 6.70511C78.3353 13.9612 73.2357 25.1829 68.7735 35.0305V35.0547Z" fill="#DD9B26"/>
<path d="M72.4421 76.0482C67.595 86.0766 66.5606 98.9978 73.5366 107.688C75.3768 109.991 77.9146 111.979 80.8613 112.184C85.9249 112.546 89.8459 107.592 91.229 102.71C93.5263 94.5863 91.5056 85.7753 87.7531 78.2178C86.6345 75.9638 85.2995 73.7098 83.2668 72.2152C81.2342 70.7206 78.3355 70.1421 76.1586 71.4077C72.1895 73.7099 73.0555 79.7124 72.4541 76.0482H72.4421Z" fill="#667256"/>
</svg>
