<svg width="117" height="101" viewBox="0 0 117 101" fill="none" xmlns="http://www.w3.org/2000/svg">
<g clip-path="url(#clip0_18_793)">
<path d="M35.4832 57.8868C30.6856 62.0738 26.4098 67.0362 24.011 72.9153C21.6167 78.7944 21.2779 85.6953 24.0934 91.3874C26.9134 97.0795 33.2034 101.194 39.5576 100.537C43.9982 100.081 47.926 97.5037 51.3366 94.6485C57.7731 89.2665 63.1156 82.6029 66.9565 75.1685C67.4783 79.1867 70.1793 82.6713 73.4937 85.0339C76.8036 87.3965 80.704 88.7922 84.5677 90.0921C89.164 91.6382 93.8655 93.1023 98.7181 93.2483C103.571 93.3942 108.657 92.067 112.118 88.6918C117.652 83.3007 117.543 74.0373 113.931 67.2278C110.314 60.4182 103.969 55.5151 97.7338 50.9404C103.314 50.5527 108.382 47.0636 111.532 42.4706C114.677 37.8777 116.082 32.2859 116.494 26.7488C116.879 21.5721 116.421 16.2357 114.288 11.5014C112.154 6.76709 108.181 2.68955 103.168 1.21635C95.573 -1.01854 87.2504 3.16846 82.3291 9.33037C77.4079 15.4923 75.1509 23.287 73.0085 30.8583C71.5756 24.5459 68.4031 18.7032 64.347 13.6405C61.4996 10.0875 58.0066 6.76253 53.6072 5.51737C49.5603 4.37256 44.9916 5.1981 41.6131 7.69297C38.2346 10.1833 36.115 14.2836 36.0463 18.4615C35.9639 23.5197 38.6649 28.1673 41.3567 32.4638C35.3459 29.9872 29.1657 27.474 22.6605 27.2962C17.318 27.1502 11.939 28.6462 7.4526 31.5288C3.88182 33.8275 0.691007 37.4079 0.617761 41.6314C0.539936 46.2289 4.12445 50.0784 7.95159 52.6736C16.0316 58.1514 26.2908 60.3543 35.4832 57.8868Z" fill="#FCB6BC"/>
<path d="M67.7162 41.0614C64.6856 41.5266 61.6184 42.0101 58.7893 43.1914C55.9601 44.3727 53.3507 46.3385 52.0094 49.0751C50.343 52.4822 50.8923 56.6737 52.751 59.985C55.9967 65.7638 63.2436 69.0158 69.758 67.6156C72.0469 67.123 74.194 66.1287 76.254 65.0204C79.0191 63.5335 81.8025 61.6726 83.1026 58.8356C85.0299 54.6167 82.9699 49.44 79.4632 46.3841C75.9611 43.3282 71.3328 41.9234 67.7162 41.066V41.0614Z" fill="#DD9B26"/>
</g>
<defs>
<clipPath id="clip0_18_793">
<rect width="116" height="100" fill="white" transform="translate(0.617615 0.605347)"/>
</clipPath>
</defs>
</svg>
