<svg width="102" height="90" viewBox="0 0 102 90" fill="none" xmlns="http://www.w3.org/2000/svg">
<g clip-path="url(#clip0_18_768)">
<path d="M53.2701 72.8449C52.1952 75.9232 53.2061 79.468 55.2872 82.0203C57.3684 84.5726 60.3826 86.2421 63.5021 87.3627C70.8982 90.0248 79.479 89.7869 86.3125 85.9951C93.1414 82.2033 97.8846 74.6928 97.5416 66.9628C97.2031 59.2328 91.3622 51.8138 83.655 50.2358C89.5829 49.2615 95.0305 45.7899 98.3512 40.8683C102.847 34.1994 103.117 24.9143 98.7766 18.099C94.4359 11.2838 85.6264 7.43253 77.6631 9.1066C72.1515 10.2638 67.4448 13.7309 63.3694 17.5502C63.6667 11.5903 59.8383 5.83621 54.5554 2.87227C49.277 -0.096234 42.8003 -0.521611 36.8861 0.768253C31.745 1.88887 26.6724 4.43658 23.8777 8.82302C20.4061 14.2615 21.3712 22.0601 26.0733 26.5655C20.8498 25.5683 15.265 26.0532 10.5355 28.4225C5.80598 30.7918 2.03703 35.1417 0.907254 40.2462C-0.309423 45.7213 1.53389 51.5119 4.58473 56.2689C6.10329 58.6336 7.9649 60.8565 10.38 62.3294C14.3685 64.7581 19.72 64.8085 23.7222 62.4529C21.2066 70.0777 25.808 79.3034 33.4968 82.0478C41.1811 84.7921 50.6629 80.5932 53.2701 72.8541L53.2701 72.8449Z" fill="#DD9B26"/>
<path d="M38.199 49.3577C40.3304 52.7881 44.1909 54.9974 48.216 55.6332C52.2411 56.2689 56.4079 55.441 60.1129 53.7944C64.8195 51.7041 69.1556 47.8482 69.8783 42.8077C70.2945 39.9078 69.4392 36.8936 67.7697 34.4602C64.1197 29.1498 56.6915 26.9406 50.4709 28.7656C44.2549 30.5861 39.4614 35.9925 37.7599 42.1537C37.028 44.802 37.06 47.5326 38.199 49.3622L38.199 49.3577Z" fill="#667256"/>
</g>
<defs>
<clipPath id="clip0_18_768">
<rect width="89.0644" height="101.359" fill="white" transform="translate(0.523132 89.1375) rotate(-90)"/>
</clipPath>
</defs>
</svg>
