<svg width="101" height="109" viewBox="0 0 101 109" fill="none" xmlns="http://www.w3.org/2000/svg">
<g clip-path="url(#clip0_18_760)">
<path d="M22.7254 38.8563C16.8918 36.7858 13.004 30.7088 12.7333 24.552C12.4626 18.3953 15.4407 12.3687 19.9122 8.11014C24.7264 3.51985 31.2877 0.794231 37.9505 0.613643C42.4559 0.491851 47.2616 1.65937 50.3032 4.97295C53.1037 8.02195 53.9667 12.3897 53.9286 16.518C53.8905 20.6463 53.0698 24.7368 53.0064 28.8694C53.8694 18.6598 61.446 9.33226 71.3027 6.35466C76.5484 4.76717 82.509 4.96035 87.2004 7.78257C95.382 12.7088 97.3406 24.1195 94.6459 33.2497C92.9918 38.8521 89.1549 44.5805 83.3466 45.4163C88.2919 44.9459 92.5392 48.881 95.3312 52.9674C99.1935 58.6202 101.77 65.4867 100.805 72.2525C99.8408 79.0182 94.6501 85.427 87.8392 86.3257C79.5181 87.4219 72.4492 80.6897 66.7974 74.5119C68.8787 78.7662 70.9812 83.0709 71.9415 87.7074C72.9018 92.3397 72.6099 97.4088 70.1351 101.449C66.1967 107.883 57.1945 110.172 50.1001 107.543C43.0058 104.914 37.9421 98.2109 35.9792 90.937C34.0163 83.6631 34.8158 75.8894 36.7745 68.6113C33.5721 72.559 29.8028 76.1834 25.196 78.3589C20.5891 80.5343 15.0431 81.1139 10.3897 79.035C3.47726 75.9356 0.135268 67.8008 0.00412699 60.2581C-0.101632 54.0467 1.65397 47.6127 5.86741 43.0266C10.0809 38.4447 16.9975 36.1097 22.9031 38.1045C22.9962 38.3859 22.8312 38.7219 22.7254 38.8521V38.8563Z" fill="#DD9B26"/>
<path d="M52.9726 40.3263C47.9216 39.4234 42.6336 42.7496 40.6665 47.47C38.6994 52.1863 39.7951 57.8518 42.8325 61.9675C45.6753 65.8186 50.1383 68.4477 54.8975 69.0692C56.8519 69.3254 58.8613 69.254 60.7692 68.75C65.2111 67.5783 68.9 63.9288 70.1056 59.519C71.3113 55.1093 69.9872 50.1033 66.7509 46.8527C65.3507 45.4458 63.6459 44.3707 61.9114 43.3921C59.2717 41.9054 56.4585 40.5867 53.4507 40.1415C53.4507 40.1163 53.4507 40.0911 52.9726 40.3221V40.3263Z" fill="#FCB6BC"/>
</g>
<defs>
<clipPath id="clip0_18_760">
<rect width="101" height="108" fill="white" transform="translate(0 0.605347)"/>
</clipPath>
</defs>
</svg>
