<svg width="31" height="31" viewBox="0 0 31 31" fill="none" xmlns="http://www.w3.org/2000/svg">
<path d="M8.34994 10.6101C8.30994 10.0801 8.48994 9.64007 8.88994 9.28007C9.11994 9.07007 9.33994 8.84007 9.55994 8.62007C10.3499 7.84007 11.5499 7.89007 12.2399 8.77007C12.4299 9.02007 12.5799 9.32007 12.6799 9.62007C12.8499 10.1301 12.9799 10.6501 13.1099 11.1701C13.2999 11.8801 13.1499 12.5101 12.6099 13.0401C12.5299 13.1201 12.4599 13.2201 12.3599 13.2801C12.0499 13.4901 12.0499 13.7401 12.1799 14.0701C13.0399 16.3501 14.5999 17.8801 16.9199 18.6301C17.0799 18.6801 17.1799 18.6601 17.2899 18.5401C17.4299 18.3801 17.5799 18.2401 17.7299 18.1001C18.2299 17.6001 18.8299 17.4501 19.5099 17.6201C20.1099 17.7701 20.7099 17.9301 21.2999 18.1101C22.2999 18.4201 22.9499 19.5301 22.5499 20.4601C22.1699 21.3401 21.5299 22.0601 20.5699 22.3301C20.1399 22.4501 19.6499 22.3601 19.1899 22.3201C17.0599 22.1001 15.0999 21.3901 13.3599 20.1201C10.6599 18.1501 9.04994 15.5101 8.49994 12.2201C8.45994 11.9801 8.42994 11.7301 8.40994 11.4801C8.37994 11.1901 8.36994 10.9001 8.34994 10.6101Z" fill="#F2EFC0"/>
<path d="M15.51 29.74C23.5237 29.74 30.02 23.2436 30.02 15.23C30.02 7.21632 23.5237 0.719971 15.51 0.719971C7.49635 0.719971 1 7.21632 1 15.23C1 23.2436 7.49635 29.74 15.51 29.74Z" stroke="#F2EFC0" stroke-width="0.99" stroke-miterlimit="10"/>
</svg>
