<svg width="33" height="32" viewBox="0 0 33 32" fill="none" xmlns="http://www.w3.org/2000/svg">
<path d="M24.8 21.9401H8.22002C8.11002 21.9401 8.02002 21.8501 8.02002 21.7401V11.4801C8.02002 11.3201 8.21002 11.2201 8.34002 11.3201L16.39 17.3001C16.46 17.3501 16.56 17.3501 16.63 17.3001L24.68 11.3201C24.81 11.2201 25 11.3201 25 11.4801V21.7401C25 21.8501 24.91 21.9401 24.8 21.9401Z" fill="#F2EFC0"/>
<path d="M8.92997 10.5201H23.96C24.15 10.5201 24.23 10.7701 24.08 10.8801L16.62 16.4301C16.55 16.4801 16.45 16.4801 16.38 16.4301L8.80997 10.8801C8.64997 10.7701 8.72997 10.5201 8.92997 10.5201Z" fill="#F2EFC0"/>
<path d="M16.51 31.26C24.8108 31.26 31.54 24.5309 31.54 16.23C31.54 7.92917 24.8108 1.20001 16.51 1.20001C8.20914 1.20001 1.47998 7.92917 1.47998 16.23C1.47998 24.5309 8.20914 31.26 16.51 31.26Z" stroke="#F2EFC0" stroke-width="1.03" stroke-miterlimit="10"/>
</svg>
