<svg width="32" height="32" viewBox="0 0 32 32" fill="none" xmlns="http://www.w3.org/2000/svg">
<path d="M7.12 10.4399H12.98C15.01 10.4399 16.4 11.7399 16.2 13.8199C16.1 14.8499 15.54 15.2799 14.64 15.5999C14.6 15.6099 14.57 15.5899 14.58 15.6599C15.85 15.6199 16.46 16.7599 16.58 17.8799C16.82 20.1999 15.52 21.6299 13.23 21.7899C11.21 21.7699 9.19 21.8099 7.17 21.7999C7.14 21.7999 7.14 21.7999 7.12 21.7699V10.4399ZM9.74 12.4599L9.7 12.4999V14.9599L9.74 14.9999H12.95C13.93 14.9999 14.01 13.2299 13.52 12.7099C13.47 12.6599 13.19 12.4699 13.13 12.4699H9.74V12.4599ZM9.7 16.7399V19.7399L9.79 19.7799C10.83 19.6899 12.12 19.9099 13.13 19.7499C14.14 19.5899 14.35 18.5999 14.15 17.7499C14.05 17.3199 13.61 16.7399 13.13 16.7399H9.7Z" fill="#F2EFC0"/>
<path d="M25.2501 19.0199L25.2801 19.0799C25.2501 19.5899 25.1601 20.0799 24.9001 20.5199C23.8601 22.2999 20.4601 22.3699 18.8601 21.3999C16.1701 19.7699 16.5701 15.0399 19.3701 13.7299C20.6001 13.1499 22.6101 13.1799 23.7501 13.9499C25.1301 14.8899 25.4401 16.6399 25.3601 18.2099L19.5301 18.2399L19.4601 18.2899C19.4901 18.8799 19.6501 19.4399 20.1301 19.8199C20.7301 20.2999 21.8601 20.3199 22.5401 20.0299C22.9301 19.8599 23.2801 19.4599 23.2801 19.0099H25.2401L25.2501 19.0199ZM23.1701 16.7399C23.1701 15.4399 22.1501 14.7599 20.9101 15.0499C20.2301 15.2099 19.5701 15.9399 19.4801 16.6299C19.4801 16.6599 19.4801 16.7399 19.5101 16.7399H23.1701Z" fill="#F2EFC0"/>
<path d="M23.6401 11.1199H18.9601V12.5099H23.6401V11.1199Z" fill="#F2EFC0"/>
<path d="M16.25 31.46C24.6613 31.46 31.48 24.6413 31.48 16.23C31.48 7.8187 24.6613 1 16.25 1C7.83872 1 1.02002 7.8187 1.02002 16.23C1.02002 24.6413 7.83872 31.46 16.25 31.46Z" stroke="#F2EFC0" stroke-width="1.04" stroke-miterlimit="10"/>
</svg>
