<svg width="91" height="90" viewBox="0 0 91 90" fill="none" xmlns="http://www.w3.org/2000/svg">
<path d="M73.74 5.40002H12.7C6.21619 5.40002 0.960022 10.6562 0.960022 17.14V78.18C0.960022 84.6638 6.21619 89.92 12.7 89.92H73.74C80.2238 89.92 85.48 84.6638 85.48 78.18V17.14C85.48 10.6562 80.2238 5.40002 73.74 5.40002Z" fill="#DD9B26"/>
<path d="M78.74 1H17.7C11.2162 1 5.96002 6.25618 5.96002 12.74V73.78C5.96002 80.2638 11.2162 85.52 17.7 85.52H78.74C85.2238 85.52 90.48 80.2638 90.48 73.78V12.74C90.48 6.25618 85.2238 1 78.74 1Z" fill="#667256" stroke="#DD9B26" stroke-width="0.85" stroke-miterlimit="10" stroke-linecap="round"/>
<path d="M16.27 34.97H41.74C50.59 34.97 53.35 39 53.35 44.49C53.35 49.53 50.11 53.59 41.74 53.59H30.92V56.54H16.26V34.97H16.27ZM30.93 43.6V45.41H35.78C38.41 45.41 38.7 45.03 38.7 44.49C38.7 43.89 38.32 43.6 35.78 43.6H30.93Z" fill="#FCB6BC"/>
<path d="M68.77 50.51C63.06 50.51 59.19 50.19 57.22 49.37C55.48 48.64 54.94 47.05 54.94 45.4C54.94 42.93 56.05 41.15 58.56 40.23C60.43 39.56 63.29 39.02 69.16 39.02C73.54 39.02 78.74 39.5 81.72 40.07L81.15 45.24L80.8 45.49C76.17 44.7 73.19 44.54 68.9 44.54C68.17 44.54 67.88 44.67 67.88 45.08C67.88 45.46 68.13 45.56 68.9 45.56C71.72 45.56 76.99 45.91 79.31 46.48C81.88 47.11 82.74 48.67 82.74 50.7C82.74 53.05 81.91 54.67 80.14 55.55C78.11 56.57 73.35 56.98 69.07 56.98C63.65 56.98 57.36 56.44 55.27 56.03L55.68 51.02L56.09 50.73C60.02 51.36 63.93 51.52 68.65 51.52C69.51 51.52 69.79 51.33 69.79 50.98C69.79 50.63 69.63 50.5 68.77 50.5V50.51Z" fill="#FCB6BC"/>
</svg>
