<svg width="131" height="81" viewBox="0 0 131 81" fill="none" xmlns="http://www.w3.org/2000/svg">
<path d="M127.112 15.1681C125.084 13.3187 122.582 12.1052 119.599 11.5204C116.615 10.9356 113.654 11.0745 110.707 11.9371C106.834 12.9824 103.442 15.402 100.524 19.1886C97.6063 22.9751 95.345 27.2076 93.7475 31.8932C92.1501 36.5716 90.8006 41.1769 89.6919 45.7017C88.5831 50.2266 87.5546 54.0497 86.6063 57.1564C85.6508 60.2704 84.6879 61.8859 83.7032 62.0029C82.4704 62.1272 81.6461 61.4985 81.2158 60.1096C80.7854 58.7207 80.5739 56.7982 80.5739 54.3348C82.4193 51.6228 84.1262 48.0263 85.6872 43.5307C87.2555 39.0351 87.912 35.709 87.6713 33.5526C87.5473 32.0175 86.9637 30.9356 85.9207 30.3216C84.8776 29.7076 83.674 29.6637 82.3245 30.1827C80.9751 30.709 79.8371 31.7105 78.9107 33.1871C77.4373 34.9707 76.117 41.4108 74.9499 52.4927C74.5195 53.3552 73.9943 54.152 73.3816 54.8976C71.5361 57.0541 69.8146 58.0044 68.2172 57.7631C66.678 57.5146 66.3717 56.1623 67.2981 53.6988C67.4804 53.1432 67.94 52.0541 68.684 50.4166C69.4207 48.7865 69.9897 47.4634 70.3909 46.4473C70.7921 45.4313 71.1568 44.2032 71.4996 42.7485C71.8352 41.3011 72.0029 39.9927 72.0029 38.8231C72.0029 37.5292 71.7258 36.2719 71.1714 35.0365C69.8219 31.8932 67.1741 29.7076 63.2424 28.4795C61.2583 27.8582 59.2669 27.4415 57.2683 27.2149V31.3742C57.5601 31.3742 57.8591 31.3742 58.1728 31.3889C60.0183 31.4839 61.3385 32.0175 62.1336 33.0044C62.7464 33.7427 63.1038 34.7003 63.1913 35.8699C63.2861 37.0394 63.1476 38.3041 62.7755 39.6564C62.4035 41.0087 61.944 42.3538 61.3896 43.6769C60.8352 45 60.1933 46.3523 59.4566 47.7412C58.7199 49.1301 58.0852 50.2339 57.5673 51.0672C57.0421 51.9006 56.568 52.6535 56.1376 53.3333C50.3605 61.6447 48.2378 68.209 49.7769 73.0117C50.3313 74.7368 51.2796 76.1842 52.6363 77.3538C53.9858 78.5234 55.5687 79.1886 57.385 79.3421C59.194 79.4956 61.0686 79.1886 63.009 78.421C64.942 77.6535 66.8969 76.1111 68.8591 73.8011C70.8286 71.4912 72.5136 68.5526 73.9287 64.978C73.8047 67.5658 73.8703 69.5029 74.111 70.7967C74.5414 74.4883 75.8763 77.1272 78.1229 78.6915C80.3623 80.2631 82.7476 80.4313 85.2642 79.1959C87.7807 77.9605 89.597 75.5628 90.7058 71.9883C91.1361 70.5701 91.7343 68.0775 92.5002 64.5029C93.2661 60.9283 94.0539 57.5731 94.849 54.4371C95.6441 51.2938 96.6288 48.0482 97.7959 44.693C98.963 41.3377 100.436 38.5672 102.224 36.3815C104.003 34.1959 106.031 32.9166 108.307 32.5511C110.765 32.1199 113.267 32.6608 115.82 34.1666C118.373 35.6798 120.197 36.4912 121.306 36.6155C123.086 36.864 124.749 36.5204 126.281 35.5994C129.227 33.75 130.796 30.5336 130.985 25.943C131.168 21.3596 129.877 17.7704 127.112 15.1827V15.1681Z" fill="#F2EFC0"/>
<path d="M28.6451 34.5322C31.4169 29.2252 33.4813 23.8012 36.8731 16.4474C36.5376 16.7837 35.8009 17.5366 34.6702 18.6989C33.5396 19.8611 32.6059 20.7676 31.8765 21.4108C31.1398 22.0614 30.1842 22.8144 28.9952 23.6623C27.8062 24.5103 26.5662 25.1462 25.2678 25.5702C23.9694 25.9942 22.5834 26.2354 21.1173 26.2939C17.222 25.8992 14.5961 24.2325 13.2393 21.2866C11.8826 18.348 11.8971 15.1608 13.2831 11.7398C14.669 8.31874 16.9667 5.76026 20.1836 4.05705C23.7432 2.13453 27.8865 0.877222 32.6278 0.277807C37.3692 -0.314298 42.1105 0.0219589 46.8519 1.29389C51.5932 2.56582 55.2039 4.84652 57.6913 8.12137C59.6098 10.6652 60.9519 13.7062 61.7105 17.2442C62.4692 20.7822 62.6151 24.2763 62.1336 27.7266C61.6522 31.1769 61.4407 34.7734 60.2006 37.8509C58.9606 40.9357 54.3213 55.8114 39.6888 55.9796C36.9534 56.0088 29.9945 53.772 28.7545 51.5644C28.1345 52.924 25.669 56.9445 15.8799 56.8275C10.0225 56.7544 4.95288 52.8436 2.91775 49.905C0.897199 46.9664 -0.0802499 43.772 -1.15568e-05 40.3217C0.0875212 36.8714 1.08685 33.9328 3.00528 31.4986C4.81429 29.291 7.09743 28.0921 9.86201 28.1872C14.3335 28.3407 17.0616 31.0527 16.9449 33.3918C16.675 38.9913 18.8049 41.3451 21.7446 41.2427C23.5098 41.1769 25.3188 40.8845 28.6378 34.5322H28.6451ZM36.3479 37.8509C38.6603 39.0424 42.8837 40.5994 46.3923 38.0483C51.6224 34.2471 54.1244 27.9679 54.8757 21.1477C55.6708 13.9182 51.564 8.25295 48.4421 6.00149C46.4726 4.58336 43.2849 3.80851 40.3453 3.97664C37.2962 4.20325 33.7001 5.40939 31.6722 7.07605C29.6371 8.74272 27.1862 11.3743 26.5516 14.9781C26.3765 15.9796 26.8069 16.7179 27.4853 17.1418C28.1636 17.5658 28.9806 17.5804 29.9435 17.1857C30.848 16.8494 35.3851 13.1579 37.9819 10.8114C40.5787 8.46494 42.7232 7.01026 44.4155 6.44009C44.7511 6.33044 45.0647 6.24272 45.3492 6.18424C46.1954 6.12576 46.7862 6.38161 47.1291 6.94447C47.4646 7.50734 47.2166 8.24564 46.3704 9.15208C44.0581 11.1916 39.8638 24.3348 36.3625 37.8582L36.3479 37.8509Z" fill="#F2EFC0"/>
<path d="M76.3504 18.4211C76.3504 18.4211 77.6634 21.6886 84.2575 21.3596C96.6799 20.7456 108.679 9.83918 117.527 11.8787C123.815 13.3333 112.188 20.519 111.145 21.6813C109.234 23.8085 93.4995 27.7339 86.9419 27.7339C82.6746 27.7339 75.8033 27.1564 70.8723 22.7705C69.1654 21.25 68.4579 18.5453 68.6183 15.9284C68.735 14.0351 69.7125 11.2939 71.1349 9.64912C72.2291 8.39181 73.7317 7.21491 75.6501 6.1038C77.5686 5 79.5891 4.15935 81.7118 3.58187C84.2065 2.91666 86.7084 2.73391 89.2323 3.04093C92.3178 3.45029 94.7542 4.43713 96.5413 6.00146C97.8397 7.1345 98.4962 8.42836 98.5181 9.89035C98.5399 11.3523 97.9272 12.807 96.6799 14.2398C95.7097 15.3582 94.404 16.2719 92.7628 16.9737C91.1215 17.6754 88.1892 18.6184 86.0811 18.7573C80.727 19.1009 76.3504 18.4064 76.3504 18.4064V18.4211ZM78.2032 13.5526C79.2098 13.6769 83.4916 14.2325 86.1832 13.6696C89.2469 13.0336 92.2084 11.5936 92.2084 9.97076C92.2084 7.90204 87.3795 7.67544 83.7688 9.05701C80.1581 10.4386 78.5679 12.9167 78.2032 13.5526Z" fill="#F2EFC0"/>
<path d="M46.4142 6.33038C46.4142 6.33038 60.4413 13.4064 78.2032 13.5526C78.867 13.5526 75.9784 18.1286 75.9784 18.1286C75.9784 18.1286 47.7491 16.1549 42.5701 11.0526L46.4142 6.33038Z" fill="#F2EFC0"/>
<path d="M16.7333 62.0614C17.4555 62.4196 18.0172 62.9166 18.4038 63.5599C18.7904 64.2032 18.98 64.9634 18.98 65.826C18.98 66.1257 18.9435 66.4985 18.8706 66.9517C18.6882 68.0117 18.287 68.9546 17.6743 69.7807C17.0616 70.6067 16.2884 71.2427 15.3401 71.6959C14.3991 72.1491 13.3633 72.3757 12.2327 72.3757H8.16972L10.0809 61.5131H14.1438C15.1432 61.5131 16.0039 61.6886 16.7333 62.0467V62.0614ZM14.9535 69.2982C15.61 68.7427 16.0258 67.9605 16.1863 66.959C16.2373 66.652 16.2665 66.3889 16.2665 66.1842C16.2665 65.4239 16.0331 64.8318 15.5735 64.4152C15.1067 63.9985 14.4502 63.7865 13.5968 63.7865H12.3275L11.2188 70.1315H12.4661C13.4655 70.1315 14.2897 69.8538 14.9535 69.2982Z" fill="#F2EFC0"/>
<path d="M25.1219 63.6181L24.7353 65.8769H28.2731L27.9156 67.8725H24.3779L23.9475 70.2994H27.9448L27.5728 72.39H20.9349L22.846 61.5275H29.4839L29.1119 63.6181H25.1146H25.1219Z" fill="#F2EFC0"/>
<path d="M47.6616 61.5275L42.9202 72.39H39.7253L39.2438 65.2555L36.2021 72.39H33.0071L32.1756 61.5275H34.9985L35.1663 69.4295L38.4852 61.5275H41.403L41.8698 69.3857L44.8168 61.5275H47.6543H47.6616Z" fill="#F2EFC0"/>
</svg>
