<svg width="90" height="90" viewBox="0 0 90 90" fill="none" xmlns="http://www.w3.org/2000/svg">
<path d="M72.82 5.39001H11.78C5.29622 5.39001 0.0400391 10.6462 0.0400391 17.13V78.17C0.0400391 84.6538 5.29622 89.91 11.78 89.91H72.82C79.3039 89.91 84.56 84.6538 84.56 78.17V17.13C84.56 10.6462 79.3039 5.39001 72.82 5.39001Z" fill="#DD9B26"/>
<path d="M77.82 1H16.78C10.2962 1 5.04004 6.25617 5.04004 12.74V73.78C5.04004 80.2638 10.2962 85.52 16.78 85.52H77.82C84.3039 85.52 89.56 80.2638 89.56 73.78V12.74C89.56 6.25617 84.3039 1 77.82 1Z" fill="#667256" stroke="#DD9B26" stroke-width="0.85" stroke-miterlimit="10" stroke-linecap="round"/>
<path d="M18.36 34.97H43.83C52.68 34.97 55.44 39 55.44 44.49C55.44 49.53 52.2 53.59 43.83 53.59H33.01V56.54H18.35V34.97H18.36ZM33.01 43.6V45.41H37.86C40.49 45.41 40.78 45.03 40.78 44.49C40.78 43.89 40.4 43.6 37.86 43.6H33.01Z" fill="#FCB6BC"/>
<path d="M78.59 48.39C78.59 48.39 77.13 48.2299 75.29 48.2299C71.71 48.2299 69.48 48.86 69.48 48.86V56.54H57.17V39.41H67L67.92 41.54H68.08L68.71 39.92C69.41 39.63 71.69 38.97 75.21 38.97C77.72 38.97 79.21 39.35 79.21 39.35L78.58 48.39H78.59Z" fill="#FCB6BC"/>
</svg>
