<svg width="91" height="90" viewBox="0 0 91 90" fill="none" xmlns="http://www.w3.org/2000/svg">
<path d="M73.2201 5.40002H12.1801C5.69624 5.40002 0.440063 10.6562 0.440063 17.14V78.18C0.440063 84.6638 5.69624 89.92 12.1801 89.92H73.2201C79.7039 89.92 84.9601 84.6638 84.9601 78.18V17.14C84.9601 10.6562 79.7039 5.40002 73.2201 5.40002Z" fill="#DD9B26"/>
<path d="M78.2201 1H17.1801C10.6962 1 5.44006 6.25618 5.44006 12.74V73.78C5.44006 80.2638 10.6962 85.52 17.1801 85.52H78.2201C84.7039 85.52 89.9601 80.2638 89.9601 73.78V12.74C89.9601 6.25618 84.7039 1 78.2201 1Z" fill="#667256" stroke="#DD9B26" stroke-width="0.85" stroke-miterlimit="10" stroke-linecap="round"/>
<path d="M45.2601 54.26H34.1901L32.9501 56.54H15.5301V54.83L29.2301 34.97H50.2301L63.9301 54.83V56.54H46.4801L45.2401 54.26H45.2601ZM37.8301 47.5H41.6401L41.3901 47.02C40.6601 45.59 40.0301 43.44 40.0301 43.44H39.4601C39.4601 43.44 38.8301 45.57 38.1001 47.02L37.8501 47.5H37.8301Z" fill="#FCB6BC"/>
<path d="M71.5201 31.3199C76.3101 31.3199 78.1501 32.3699 78.1501 34.6799C78.1501 36.9899 76.3101 38.1399 71.5201 38.1399C66.7301 38.1399 64.8901 37.0299 64.8901 34.6799C64.8901 32.3299 66.7301 31.3199 71.5201 31.3199ZM77.6701 56.5399H65.3601V39.4099H77.6701V56.5399Z" fill="#FCB6BC"/>
</svg>
