<svg width="890" height="545" viewBox="0 0 890 545" fill="none" xmlns="http://www.w3.org/2000/svg">
<path fill-rule="evenodd" clip-rule="evenodd" d="M221.452 2.88581C253.628 -1.13306 285.804 1.14909 317.98 9.78229C350.156 18.4155 374.659 33.8962 391.539 56.1241C396.116 62.1943 400.207 68.6828 403.815 75.587C423.643 80.756 446.071 85.4638 470.341 88.6778C473.342 80.5011 477.629 72.4408 482.771 66.4932C490.196 57.9595 500.393 49.9712 513.412 42.4298C526.431 34.9377 540.144 29.2313 554.549 25.3116C571.478 20.7966 588.457 19.5568 605.585 21.6407C626.524 24.4192 643.057 31.1176 655.185 41.7354C663.996 49.4259 668.452 58.2078 668.6 68.1309C668.749 78.0541 664.59 87.9277 656.126 97.6524C649.542 105.244 640.681 111.446 629.543 116.209C618.405 120.972 598.506 127.373 584.2 128.315C547.935 130.643 518.278 125.952 518.165 125.934V126.033C518.209 126.143 527.186 148.206 571.824 145.979C624.133 143.392 675.338 113.911 721.013 95.213C730.582 89.2917 740.682 84.8942 751.317 82.0235C771.316 76.1688 791.414 75.2261 811.66 79.1954C831.906 83.1647 848.885 91.4013 862.646 103.954V104.053C881.407 121.617 890.169 145.979 888.931 177.088C887.644 208.247 877.001 230.078 857.003 242.631C846.607 248.882 835.321 251.214 823.243 249.527C815.719 248.684 803.343 243.177 786.017 232.906C768.692 222.686 751.713 219.014 735.031 221.941C719.587 224.422 705.825 233.105 693.747 247.94C681.619 262.776 671.619 281.58 663.699 304.354C655.779 327.127 649.097 349.157 643.701 370.492C638.305 391.778 632.959 414.551 627.761 438.814C622.564 463.076 618.504 479.996 615.584 489.621C608.06 513.883 595.733 530.157 578.655 538.542C561.577 546.927 545.39 545.787 530.193 535.119C514.947 524.501 505.888 506.589 502.967 481.533C501.334 472.751 500.889 459.603 501.73 442.039C492.127 466.301 480.691 486.247 467.326 501.926C454.01 517.604 440.744 528.074 427.626 533.283C414.458 538.493 401.736 540.576 389.46 539.534C377.134 538.492 366.393 533.977 357.235 526.039C348.028 518.101 341.592 508.276 337.83 496.566C327.385 463.969 341.791 419.413 380.996 363C383.916 358.386 387.134 353.275 390.698 347.619C394.213 341.963 398.519 334.471 403.518 325.044C408.518 315.617 412.874 306.438 416.636 297.457C420.399 288.477 423.517 279.347 426.042 270.168C428.566 260.989 429.507 252.405 428.863 244.467C428.269 236.528 425.843 230.029 421.685 225.018C420.491 223.536 419.123 222.204 417.58 221.023C415.708 233.884 413.194 246.431 408.568 257.913C400.153 278.851 368.669 379.82 269.369 380.961C250.806 381.159 203.581 365.977 195.166 350.993C190.958 360.222 174.227 387.511 107.796 386.717C68.0461 386.221 33.6428 359.676 19.8318 339.731C6.11984 319.785 -0.513505 298.102 0.0309827 274.684C0.625001 251.265 7.40662 231.319 20.4255 214.797C32.7019 199.813 48.1957 191.675 66.9568 192.32C97.3013 193.362 115.815 211.77 115.023 227.648C113.192 265.653 127.646 281.63 147.595 280.936C159.575 280.489 171.851 278.504 194.374 235.388H194.424C213.234 199.366 227.243 162.551 250.261 112.637C247.984 114.919 242.985 120.03 235.312 127.919C227.64 135.808 221.303 141.96 216.353 146.326C211.354 150.742 204.868 155.853 196.8 161.608C188.731 167.364 180.316 171.68 171.505 174.558C162.693 177.435 153.287 179.073 143.338 179.47C116.904 176.79 99.0839 165.478 89.8767 145.482C80.6694 125.537 80.7683 103.904 90.1736 80.6837C99.5789 57.4635 115.172 40.0977 137.002 28.5372C161.158 15.4881 189.276 6.95434 221.452 2.88581ZM417.746 113.352C418.119 114.902 418.476 116.466 418.814 118.045C423.962 142.059 424.952 165.776 421.685 189.194C421.556 190.124 421.429 191.056 421.304 191.989C423.941 192.709 426.577 193.48 429.21 194.305C455.891 202.64 473.86 217.476 483.018 238.811C486.78 247.196 488.662 255.73 488.662 264.512C488.662 272.45 487.523 281.331 485.246 291.155C482.919 301.029 480.444 309.365 477.721 316.262C474.999 323.158 471.138 332.139 466.138 343.203C461.089 354.317 457.971 361.71 456.733 365.481C450.446 382.201 452.526 391.38 462.97 393.067C473.811 394.705 485.494 388.255 498.017 373.618C502.175 368.557 505.739 363.149 508.66 357.294C516.58 282.076 525.54 238.364 535.54 226.258C541.826 216.235 549.549 209.438 558.707 205.865C567.864 202.343 576.032 202.64 583.111 206.808C590.19 210.975 594.149 218.319 594.991 228.738C596.625 243.375 592.169 265.951 581.526 296.465C570.933 326.979 559.35 351.39 546.826 369.798C546.826 386.518 548.262 399.567 551.182 408.994C554.103 418.421 559.696 422.688 568.062 421.845C574.745 421.051 581.279 410.086 587.763 388.949C594.199 367.862 601.179 341.913 608.703 311.2C616.227 280.488 625.385 249.23 636.226 217.476C640.475 205.012 645.414 193.021 651.043 181.5C627.595 186.15 605.203 189.244 590.041 189.244C561.082 189.244 514.452 185.324 480.989 155.555C471.642 147.227 466.712 133.666 465.728 119.407C451.282 117.827 434.782 115.819 417.746 113.352ZM301.638 84.6915C285.795 119.391 264.926 187.926 246.797 257.963L246.697 257.913C262.389 266.001 291.051 276.569 314.861 259.253C350.354 233.453 367.333 190.832 372.431 144.54C373.98 130.452 372.787 117.239 369.798 105.198C342.541 99.7223 317.63 92.9347 301.638 84.6915ZM328.771 41.7354C315.406 32.1099 293.773 26.8501 273.824 27.9913C253.132 29.5294 228.728 37.7169 214.967 49.0294C201.156 60.3419 184.523 78.2036 180.217 102.664C179.029 109.461 181.949 114.473 186.552 117.351C191.156 120.228 196.701 120.328 203.235 117.648C209.373 115.366 240.163 90.3097 257.786 74.3829C275.408 58.4561 289.962 48.5821 301.446 44.712C303.723 43.9678 305.852 43.3726 307.782 42.9757C311.325 42.7307 314.209 43.2998 316.444 44.668C319.958 46.36 329.814 50.9494 344.71 56.6671C339.381 50.4592 333.883 45.4223 328.771 41.7354ZM625.781 68.6768C625.781 54.6354 593.011 53.0972 568.508 62.4747C544.005 71.852 533.213 88.6714 530.738 92.9883L530.839 92.9942C530.873 92.9982 530.905 93.0037 530.936 93.0118C538.114 93.9009 566.798 97.5668 584.892 93.7823C605.683 89.4657 625.781 79.6915 625.781 68.6768Z" fill="#F2EFC0"/>
<path d="M197.592 432.809H170.514L167.89 448.14H191.899L189.473 461.685H165.466L162.545 478.157H189.672L187.147 492.348H142.1L155.07 418.618H200.116L197.592 432.809Z" fill="#F2EFC0"/>
<path d="M238.678 472.253L261.201 418.618H281.002L284.171 471.955L304.169 418.618H323.474L291.299 492.348H269.617L266.349 443.922L245.708 492.348H224.026L218.383 418.618H237.54L238.678 472.253Z" fill="#F2EFC0"/>
<path fill-rule="evenodd" clip-rule="evenodd" d="M96.0144 418.521C102.796 418.521 108.637 419.711 113.588 422.143V422.241C118.488 424.672 122.3 428.047 124.924 432.413C127.547 436.779 128.834 441.939 128.834 447.794C128.834 449.828 128.587 452.359 128.092 455.435C126.854 462.629 124.132 469.03 119.973 474.637C115.815 480.243 110.568 484.56 104.133 487.636C97.7468 490.712 90.7174 492.25 83.0447 492.25H55.4724L68.4421 418.521H96.0144ZM76.1638 477.018H84.6286C91.4104 477.018 97.0049 475.132 101.509 471.361C105.964 467.591 108.786 462.282 109.875 455.484C110.221 453.401 110.42 451.615 110.42 450.226C110.42 445.066 108.835 441.046 105.717 438.218C102.548 435.39 98.093 433.951 92.3015 433.951H83.6882L76.1638 477.018Z" fill="#F2EFC0"/>
</svg>
