<svg width="91" height="90" viewBox="0 0 91 90" fill="none" xmlns="http://www.w3.org/2000/svg">
<path d="M73.26 5.40002H12.22C5.73618 5.40002 0.480011 10.6562 0.480011 17.14V78.18C0.480011 84.6638 5.73618 89.92 12.22 89.92H73.26C79.7438 89.92 85 84.6638 85 78.18V17.14C85 10.6562 79.7438 5.40002 73.26 5.40002Z" fill="#DD9B26"/>
<path d="M78.26 1H17.22C10.7362 1 5.48001 6.25618 5.48001 12.74V73.78C5.48001 80.2638 10.7362 85.52 17.22 85.52H78.26C84.7438 85.52 90 80.2638 90 73.78V12.74C90 6.25618 84.7438 1 78.26 1Z" fill="#667256" stroke="#DD9B26" stroke-width="0.85" stroke-miterlimit="10" stroke-linecap="round"/>
<path d="M37.58 54.26H26.51L25.27 56.54H7.85001V54.83L21.55 34.97H42.55L56.25 54.83V56.54H38.8L37.56 54.26H37.58ZM30.16 47.5H33.97L33.72 47.02C32.99 45.59 32.36 43.44 32.36 43.44H31.79C31.79 43.44 31.16 45.57 30.43 47.02L30.18 47.5H30.16Z" fill="#FCB6BC"/>
<path d="M68.26 50.13V50.54C68.26 50.83 68.42 51.05 68.86 51.11C69.59 51.24 71.62 51.27 74.22 51.27C77.74 51.27 83.36 50.89 84.4 50.86L84.62 50.99V56.22C83.22 56.38 78.72 56.98 71.71 56.98C66.38 56.98 61.91 56.5 59.56 55.14C57.34 53.84 55.94 51.9 55.94 48.13C55.94 44.93 57.11 42.8 59.4 41.34C61.81 39.79 66 39.09 71.04 39.09C75.67 39.09 79.35 39.6 81.57 40.42C84.11 41.37 85.44 43.18 85.44 45.94C85.44 47.65 85.15 49.05 84.9 50.13H68.25H68.26ZM68.26 45.82H73.75C73.75 45.82 73.78 45.57 73.78 45.44C73.78 45.19 73.68 44.96 73.37 44.87C72.96 44.74 71.91 44.68 71.18 44.68C70.16 44.68 69.05 44.74 68.64 45C68.39 45.16 68.26 45.38 68.26 45.67V45.83V45.82Z" fill="#FCB6BC"/>
</svg>
