<svg width="90" height="90" viewBox="0 0 90 90" fill="none" xmlns="http://www.w3.org/2000/svg">
<path d="M72.78 5.39001H11.74C5.25617 5.39001 0 10.6462 0 17.13V78.17C0 84.6538 5.25617 89.91 11.74 89.91H72.78C79.2638 89.91 84.52 84.6538 84.52 78.17V17.13C84.52 10.6462 79.2638 5.39001 72.78 5.39001Z" fill="#DD9B26"/>
<path d="M77.78 1H16.74C10.2562 1 5 6.25618 5 12.74V73.78C5 80.2638 10.2562 85.52 16.74 85.52H77.78C84.2638 85.52 89.52 80.2638 89.52 73.78V12.74C89.52 6.25618 84.2638 1 77.78 1Z" fill="#667256" stroke="#DD9B26" stroke-width="0.85" stroke-miterlimit="10" stroke-linecap="round"/>
<path opacity="0.9" d="M32.4 48.3C42.1 41.11 63.79 36.2 68.1 26.62C68.9 24.84 69.4 23.16 69.69 21.61C69.68 19.18 69.42 16.89 69.12 15.01C68.56 24.45 65.84 26.34 59.77 30.72C54.47 34.55 39.29 38.23 31.77 45.6C26.62 50.64 24.52 57.28 24.27 63.61C25.36 58.11 27.64 51.82 32.4 48.3Z" fill="#FCB6BC"/>
<path opacity="0.9" d="M69.48 13.8099C69.98 15.7499 70.28 18.4199 69.69 21.5999C69.71 26.6399 68.67 32.2399 64.75 35.8399C56.12 43.7499 39.59 46.0199 33.12 53.3299C30.8 55.9499 28.88 59.7399 27.37 63.5099C29.05 60.3599 31.9 57.0999 36.79 55.1799C48.43 50.6099 60.22 47.5199 66.85 36.7599C73.16 26.5199 71.33 18.9599 69.49 13.8099H69.48Z" fill="#FCB6BC"/>
<path d="M24.28 63.61C23.15 69.32 23.3 74.17 23.3 74.17V76.93C23.3 76.93 23.81 74.45 24.81 70.99C24.38 68.66 24.18 66.16 24.28 63.61Z" fill="#FCB6BC"/>
<path d="M69.48 13.81C68.91 11.59 68.1 10.3199 68.1 10.3199C68.1 10.3199 68.66 12.2 69.12 15C69.16 14.38 69.18 13.72 69.2 13.03C69.29 13.28 69.39 13.54 69.48 13.8V13.81Z" fill="#FCB6BC"/>
<path d="M27.37 63.51C26.24 65.63 25.65 67.7 25.34 69.26C25.9 67.46 26.58 65.49 27.37 63.51Z" fill="#FCB6BC"/>
<path d="M64.75 35.84C68.67 32.24 69.72 26.64 69.69 21.6C69.4 23.16 68.9 24.83 68.1 26.61C63.79 36.19 42.1 41.11 32.4 48.29C27.64 51.82 25.36 58.11 24.27 63.6C24.17 66.15 24.38 68.65 24.8 70.98C24.96 70.42 25.14 69.84 25.33 69.24C25.64 67.68 26.23 65.62 27.36 63.49C28.87 59.72 30.79 55.94 33.11 53.31C39.58 46 56.11 43.73 64.74 35.82L64.75 35.84Z" fill="#FCB6BC"/>
<path d="M69.48 13.8099C69.39 13.5499 69.29 13.2899 69.2 13.0399C69.18 13.7299 69.15 14.3899 69.12 15.0099C69.43 16.8899 69.68 19.1799 69.69 21.6099C70.28 18.4199 69.98 15.7599 69.48 13.8199V13.8099Z" fill="#FCB6BC"/>
</svg>
