<svg width="64" height="74" viewBox="0 0 64 74" fill="none" xmlns="http://www.w3.org/2000/svg">
<path d="M29.4416 35.4915C32.2134 30.1845 34.2778 24.7605 37.6697 17.4067C37.3341 17.7429 36.5974 18.4959 35.4667 19.6581C34.3361 20.8204 33.4024 21.7269 32.673 22.3701C31.9363 23.0207 30.9807 23.7736 29.7917 24.6216C28.6027 25.4696 27.3627 26.1055 26.0643 26.5295C24.7659 26.9535 23.3799 27.1947 21.9138 27.2532C18.0186 26.8584 15.3926 25.1918 14.0358 22.2459C12.6791 19.3073 12.6937 16.1201 14.0796 12.6991C15.4655 9.27803 17.7633 6.71955 20.9801 5.01634C24.5397 3.09382 28.683 1.83651 33.4243 1.2371C38.1657 0.644991 42.907 0.981248 47.6484 2.25318C52.3897 3.52511 56.0005 5.80581 58.4878 9.08066C60.4063 11.6245 61.7484 14.6655 62.5071 18.2035C63.2657 21.7415 63.4116 25.2356 62.9301 28.6859C62.4487 32.1362 62.2372 35.7327 60.9971 38.8102C59.7571 41.895 55.1178 56.7707 40.4853 56.9389C37.7499 56.9681 30.791 54.7312 29.551 52.5236C28.931 53.8833 26.4655 57.9038 16.6764 57.7868C10.819 57.7137 5.74939 53.8029 3.71425 50.8643C1.69371 47.9257 0.716259 44.7313 0.796497 41.281C0.88403 37.8307 1.88336 34.8921 3.80179 32.4579C5.6108 30.2503 7.89394 29.0514 10.6585 29.1465C15.13 29.3 17.8581 32.012 17.7414 34.3511C17.4715 39.9505 19.6014 42.3043 22.5411 42.202C24.3063 42.1362 26.1153 41.8438 29.4343 35.4915H29.4416ZM37.1445 38.8102C39.4568 40.0017 43.6802 41.5587 47.1888 39.0076C52.4189 35.2064 54.9209 28.9272 55.6722 22.107C56.4673 14.8774 52.3606 9.21224 49.2386 6.96078C47.2691 5.54265 44.0814 4.7678 41.1418 4.93593C38.0927 5.16254 34.4966 6.36868 32.4687 8.03534C30.4336 9.70201 27.9827 12.3336 27.3481 15.9374C27.173 16.9389 27.6034 17.6772 28.2818 18.1011C28.9601 18.5251 29.7771 18.5397 30.74 18.145C31.6445 17.8087 36.1816 14.1172 38.7784 11.7707C41.3752 9.42423 43.5198 7.96955 45.2121 7.39938C45.5476 7.28973 45.8613 7.20201 46.1457 7.14353C46.9919 7.08505 47.5827 7.3409 47.9256 7.90376C48.2611 8.46663 48.0131 9.20493 47.167 10.1114C44.8546 12.1508 40.6604 25.2941 37.159 38.8175L37.1445 38.8102Z" fill="#F2EFC0"/>
<path d="M17.5297 63.0207C18.2519 63.3788 18.8136 63.8759 19.2002 64.5192C19.5868 65.1625 19.7764 65.9227 19.7764 66.7853C19.7764 67.085 19.7399 67.4578 19.667 67.911C19.4846 68.9709 19.0834 69.9139 18.4707 70.74C17.858 71.566 17.0848 72.2019 16.1365 72.6552C15.1955 73.1084 14.1597 73.335 13.0291 73.335H8.96613L10.8773 62.4724H14.9402C15.9396 62.4724 16.8003 62.6478 17.5297 63.006V63.0207ZM15.7499 70.2575C16.4064 69.7019 16.8222 68.9198 16.9827 67.9183C17.0337 67.6113 17.0629 67.3481 17.0629 67.1435C17.0629 66.3832 16.8295 65.7911 16.3699 65.3745C15.9031 64.9578 15.2466 64.7458 14.3932 64.7458H13.1239L12.0152 71.0908H13.2625C14.2619 71.0908 15.0861 70.8131 15.7499 70.2575Z" fill="#F2EFC0"/>
<path d="M25.9183 64.5775L25.5317 66.8362H29.0695L28.712 68.8318H25.1743L24.7439 71.2587H28.7412L28.3692 73.3494H21.7313L23.6424 62.4868H30.2803L29.9083 64.5775H25.911H25.9183Z" fill="#F2EFC0"/>
<path d="M48.458 62.4868L43.7166 73.3494H40.5217L40.0402 66.2149L36.9985 73.3494H33.8035L32.972 62.4868H35.7949L35.9627 70.3889L39.2816 62.4868H42.1994L42.6662 70.345L45.6132 62.4868H48.4507H48.458Z" fill="#F2EFC0"/>
</svg>
