<svg width="91" height="90" viewBox="0 0 91 90" fill="none" xmlns="http://www.w3.org/2000/svg">
<path d="M73.3 5.40002H12.26C5.77619 5.40002 0.52002 10.6562 0.52002 17.14V78.18C0.52002 84.6638 5.77619 89.92 12.26 89.92H73.3C79.7838 89.92 85.04 84.6638 85.04 78.18V17.14C85.04 10.6562 79.7838 5.40002 73.3 5.40002Z" fill="#DD9B26"/>
<path d="M78.3 1H17.26C10.7762 1 5.52002 6.25618 5.52002 12.74V73.78C5.52002 80.2638 10.7762 85.52 17.26 85.52H78.3C84.7838 85.52 90.04 80.2638 90.04 73.78V12.74C90.04 6.25618 84.7838 1 78.3 1Z" fill="#667256" stroke="#DD9B26" stroke-width="0.85" stroke-miterlimit="10" stroke-linecap="round"/>
<path d="M38.87 56.54H23.26V34.97H38.87V56.54Z" fill="#FCB6BC"/>
<path d="M59.2 39.79H59.39V32.75H71.7V56.54H61.52L60.98 55.56H60.73C59.21 56.23 55.65 56.86 52.8 56.86C48.26 56.86 45.35 55.88 43.6 54.45C42.05 53.18 40.94 51.18 40.94 47.98C40.94 44.78 42.11 42.81 43.79 41.48C45.57 40.08 48.33 39.1 52.86 39.1C54.95 39.1 57.81 39.42 59.2 39.8V39.79ZM55.37 48.71C57.72 48.71 59.4 48.46 59.4 48.46V47.41C59.4 47.41 57.53 47.25 55.37 47.25C53.56 47.25 53.31 47.47 53.31 47.98C53.31 48.46 53.56 48.71 55.37 48.71Z" fill="#FCB6BC"/>
</svg>
